Fly_normalized_Motion_pl12
version=1
nRows=21
nColumns=43
inDegrees=yes
endheader
time		pelvis_tilt		pelvis_list		pelvis_rotation		pelvis_tx		pelvis_ty		pelvis_tz		hip_flexion_r		hip_adduction_r		hip_rotation_r		knee_angle_r		ankle_angle_r		subtalar_angle_r		mtp_angle_r		hip_flexion_l		hip_adduction_l		hip_rotation_l		knee_angle_l		ankle_angle_l		subtalar_angle_l		mtp_angle_l		lumbar_extension		lumbar_bending		lumbar_rotation		neck_flexion		neck_lateral_bending		neck_rotation		arm_flex_r		arm_add_r		arm_rot_r		elbow_flex_r		pro_sup_r		wrist_flex_r		wrist_dev_r		hand_finger_flex_r		arm_flex_l		arm_add_l		arm_rot_l		elbow_flex_l		pro_sup_l		wrist_flex_l		wrist_dev_l		hand_finger_flex_l		
0.565000		1.319316		-18.584390		88.076575		0.031876		1.919639		1.473342		47.558202		4.499574		5.081927		-101.100690		-10.177974		-2.164601		27.958176		56.323370		-10.175507		-3.627662		-103.203404		-5.310797		-9.335556		26.033370		-33.072802		-0.213801		-1.204735		17.471468		-0.473905		6.237723		110.355254		-9.580253		18.870845		70.848452		111.706497		-2.671145		3.566692		18.081688		118.306629		-17.737092		30.195982		67.792823		93.444380		-9.303804		-0.127395		23.733107		
0.569343		1.326761		-18.487106		88.027192		0.031959		1.920288		1.466367		47.619181		4.628446		5.143528		-100.245271		-9.789636		-2.633442		27.702378		56.539455		-10.119217		-3.419427		-102.287600		-5.440139		-9.258960		25.996812		-33.225432		-0.274137		-1.234110		17.679932		-0.442543		6.226630		110.199386		-9.510857		18.931249		70.724689		111.692429		-2.723999		3.681110		17.929414		118.074892		-17.630446		29.958010		67.703504		93.349397		-9.397797		-0.085363		23.645025		
0.573687		1.325265		-18.359549		88.000354		0.031883		1.920911		1.459337		47.673574		4.709433		5.180610		-99.322090		-9.751510		-3.420425		27.210555		56.697223		-10.037262		-3.233112		-101.287880		-5.668618		-9.099231		25.952016		-33.400027		-0.315772		-1.243663		17.765904		-0.422589		6.255414		109.986341		-9.586765		19.154001		70.675467		111.616813		-2.830169		3.876823		17.666205		117.689255		-17.477554		29.637422		67.629137		93.163894		-9.520595		-0.013228		23.521693		
0.578030		1.727255		-18.208013		88.151460		0.032004		1.921286		1.452480		47.751059		5.075506		4.756354		-98.328673		-9.881871		-5.053749		23.246058		56.968466		-10.273359		-2.670448		-100.375833		-5.738978		-8.701532		25.627888		-33.634502		0.011174		-1.015862		17.888863		-0.399638		6.236261		109.906903		-9.969674		19.916672		70.717512		110.356369		-2.993799		4.652986		15.610511		117.340415		-17.283191		29.332244		67.485960		92.776520		-9.299027		0.335963		22.746827		
0.582374		1.461344		-18.107016		88.009038		0.031621		1.921566		1.445668		47.946431		4.884562		4.958070		-97.400138		-10.010213		-6.177727		22.715407		57.079332		-10.057781		-2.751975		-99.249686		-5.948890		-8.319520		25.586719		-33.757536		-0.246312		-1.172968		17.820023		-0.425697		6.264627		109.409048		-9.729867		19.716922		70.536330		110.410826		-2.910274		4.615956		15.461052		116.698692		-17.094481		28.809869		67.392933		92.448645		-9.533572		0.277420		22.554587		
0.586717		1.408140		-18.014062		87.877437		0.031452		1.921658		1.439014		48.193134		4.904269		4.986379		-96.405140		-10.291731		-7.704372		22.101582		57.247838		-10.069402		-2.704331		-98.161223		-5.947817		-7.876739		25.561977		-33.887777		-0.360136		-1.225603		17.734273		-0.366872		6.337646		108.770320		-9.285805		19.239771		70.323571		110.560923		-2.655758		4.587334		15.389454		116.141483		-17.063436		28.538652		67.296432		92.112513		-9.651988		0.365064		22.349539		
0.591061		1.419155		-17.906777		87.803717		0.031199		1.921657		1.432352		48.430891		4.907375		4.911530		-95.366348		-10.502443		-9.218843		21.601053		57.421458		-10.079116		-2.576282		-97.073329		-5.886090		-7.391649		25.562175		-34.033751		-0.389445		-1.296444		17.609487		-0.313924		6.435696		108.005656		-8.704230		18.586915		70.093969		110.904047		-2.238808		4.505290		15.471537		115.516985		-17.096823		28.309886		67.241720		91.784543		-9.803959		0.493721		22.138291		
0.595404		1.460114		-17.787364		87.757430		0.030911		1.921551		1.425689		48.668874		4.905172		4.789982		-94.294464		-10.662092		-10.544866		21.209393		57.594305		-10.070645		-2.416067		-95.980687		-5.790765		-6.973791		25.582650		-34.205676		-0.386808		-1.360164		17.504119		-0.249312		6.516917		107.217296		-8.207523		18.022157		69.901063		111.383809		-1.758858		4.405197		15.648474		114.858181		-17.184371		28.154202		67.226268		91.542741		-9.956314		0.652326		21.967067		
0.599747		1.442305		-17.648698		87.725096		0.030636		1.921260		1.419118		48.901471		4.834469		4.667479		-93.230925		-10.545349		-11.807349		20.936050		57.754961		-9.996487		-2.289460		-94.874017		-5.722866		-6.630719		25.610664		-34.406976		-0.428937		-1.433024		17.428904		-0.282448		6.618701		106.413339		-7.777666		17.518794		69.675809		111.681110		-1.523532		4.390430		15.781735		114.137894		-17.114801		27.855130		67.080329		91.390901		-10.212462		0.821735		21.841332		
0.604091		1.452537		-17.512273		87.713579		0.030300		1.920837		1.412470		49.164810		4.769692		4.525108		-92.132849		-10.664773		-12.826356		20.590354		57.901787		-9.921811		-2.157599		-93.750866		-5.580536		-6.332339		25.647744		-34.621502		-0.434643		-1.490850		17.377876		-0.250962		6.677092		105.681855		-7.624807		17.423256		69.522766		112.053394		-1.246732		4.416178		15.913691		113.385231		-17.137799		27.669775		67.021382		91.380171		-10.391721		1.048867		21.776516		
0.608434		1.572060		-17.388437		87.762447		0.030070		1.920157		1.405925		49.477038		4.809835		4.285120		-91.010033		-10.940592		-13.952991		19.777373		58.098597		-9.924399		-1.924684		-92.658059		-5.338527		-5.919592		25.747837		-34.836066		-0.330811		-1.485286		17.417102		-0.273031		6.700253		104.969111		-7.520665		17.363977		69.316746		112.727857		-0.945407		4.489928		15.953643		112.606729		-17.096963		27.399761		66.903802		91.693916		-10.517647		1.507880		21.782819		
0.612778		1.742711		-17.275029		87.823084		0.029942		1.919321		1.399411		49.809269		4.894748		3.986155		-89.847982		-11.198352		-15.008965		18.696007		58.311410		-9.964622		-1.635010		-91.551796		-5.062834		-5.468116		25.887720		-35.059878		-0.190550		-1.451999		17.481456		-0.321453		6.710398		104.231434		-7.459013		17.361851		69.133014		113.519554		-0.670885		4.580147		15.895319		111.775784		-17.037699		27.061076		66.817841		92.202180		-10.584146		2.039246		21.848070		
0.617121		1.694377		-17.128741		87.812147		0.029595		1.918369		1.392724		50.095283		4.771684		3.902921		-88.707861		-10.964685		-15.241165		18.435043		58.395285		-9.858603		-1.608093		-90.346937		-4.977937		-5.337591		25.925706		-35.292563		-0.234549		-1.526879		17.484501		-0.330581		6.785792		103.406651		-7.533451		17.576030		68.984621		113.611195		-0.719786		4.686919		15.754664		110.856446		-17.080033		26.878296		66.741257		92.288057		-10.653633		2.089682		21.863077		
0.621465		1.675032		-16.994347		87.922586		0.029038		1.917351		1.385869		50.379068		4.561264		3.666284		-87.489857		-10.990068		-15.598759		17.617383		58.468841		-9.678767		-1.521139		-89.084830		-4.702329		-5.025914		26.049476		-35.489272		-0.161540		-1.651856		17.270776		-0.444862		6.869101		102.394629		-7.601204		17.843758		68.990182		113.867442		-1.088831		5.078148		15.070255		109.556846		-16.992413		26.161875		66.902787		92.948079		-10.780728		2.374788		21.959401		
0.625808		1.713908		-16.878126		87.936901		0.028714		1.915976		1.379500		50.748330		4.541193		3.548732		-86.273944		-10.953862		-15.648475		17.209705		58.621684		-9.637244		-1.446030		-87.871418		-4.581626		-4.900706		26.116685		-35.724384		-0.121529		-1.648249		17.369996		-0.481306		6.887966		101.610439		-7.666403		18.121246		68.681038		113.940962		-1.122186		5.312595		14.750069		108.692516		-17.040415		26.062204		66.680803		93.379011		-10.724166		2.603331		22.050137		
0.630152		1.762477		-16.730162		87.913405		0.028668		1.914408		1.372743		51.054563		4.517932		3.350455		-85.000695		-10.932899		-15.426569		16.997932		58.696276		-9.658503		-1.362051		-86.636342		-4.554281		-4.858701		26.166563		-35.960863		-0.133805		-1.678007		17.362254		-0.500420		6.927017		100.573387		-7.762802		18.301885		68.585451		113.761873		-0.971867		5.424100		14.628573		107.666289		-17.280657		26.060377		66.721217		93.719944		-10.619972		2.717878		22.151688		
0.634495		1.899194		-16.695732		88.066642		0.028061		1.912668		1.366168		51.440630		4.454448		3.120398		-83.729349		-10.433689		-14.576115		16.203222		58.945337		-9.563097		-1.161899		-85.410737		-4.544978		-4.833148		26.486278		-36.097592		0.104021		-1.689204		17.424214		-0.635827		6.987360		99.676058		-7.927672		18.683050		68.349675		112.779449		-0.444339		5.867297		14.029212		106.356837		-17.195035		25.219099		66.767134		95.655859		-10.059132		3.325686		22.642513		
0.638838		1.942750		-16.584448		88.076411		0.027936		1.910876		1.359624		51.762960		4.439998		2.959983		-82.401554		-10.354621		-14.234294		15.976256		59.036350		-9.576320		-1.158555		-84.093732		-4.545858		-4.796230		26.581899		-36.334514		0.121893		-1.674094		17.539753		-0.638503		7.000218		98.699879		-8.100512		18.959202		68.087051		112.501576		-0.265463		6.019469		13.877493		105.327494		-17.352342		25.178764		66.613452		96.150103		-9.841707		3.495230		22.795532		
0.643182		1.961237		-16.423522		88.036116		0.027980		1.909016		1.352706		52.009684		4.429671		2.816126		-81.059376		-10.369026		-13.741370		15.970189		59.010873		-9.632812		-1.152410		-82.783248		-4.596717		-4.718326		26.621246		-36.599461		0.084736		-1.668692		17.583560		-0.636484		7.018470		97.534907		-8.354692		19.240541		67.998888		112.300317		-0.203127		6.089025		13.854126		104.167496		-17.671635		25.275928		66.624858		96.247604		-9.723957		3.528922		22.854686		
0.647525		1.993692		-16.299599		88.024050		0.027782		1.906938		1.345956		52.270259		4.372522		2.725650		-79.690312		-9.904873		-12.338286		16.204801		59.036400		-9.638763		-1.105216		-81.447429		-4.695724		-4.473861		26.737336		-36.840843		0.124929		-1.652416		17.683551		-0.758298		7.074287		96.454149		-8.577499		19.673795		67.768765		111.769338		-0.390430		6.449950		13.532643		102.860548		-17.844391		24.966856		66.616924		96.715133		-9.500553		3.783107		22.932031		
0.651869		1.989434		-16.208187		87.993096		0.027691		1.904671		1.339412		52.567144		4.328719		2.582799		-78.234344		-9.930092		-12.120993		16.227704		59.054288		-9.662151		-1.149360		-80.043114		-4.709095		-4.395622		26.751802		-37.058187		0.085860		-1.634502		17.787968		-0.733153		7.074864		95.360558		-8.849443		19.995939		67.460210		111.739917		-0.308512		6.567461		13.514229		101.817534		-18.187028		25.276816		66.403358		96.820464		-9.327022		3.881014		22.991567		
